<?xml version="1.0" standalone="no"?>
<!DOCTYPE svg PUBLIC "-//W3C//DTD SVG 20010904//EN"
 "http://www.w3.org/TR/2001/REC-SVG-20010904/DTD/svg10.dtd">
<svg version="1.0" xmlns="http://www.w3.org/2000/svg"
 width="100.000000pt" height="100.000000pt" viewBox="0 0 100.000000 100.000000"
 preserveAspectRatio="xMidYMid meet">
<metadata>
Created by potrace 1.14, written by Peter Selinger 2001-2017
</metadata>
<g transform="translate(0.000000,100.000000) scale(0.100000,-0.100000)"
fill="#000000" stroke="none">
<path d="M425 838 c-33 -18 -57 -48 -51 -63 2 -7 0 -16 -7 -19 -7 -2 -1 -5 13
-6 l25 -2 -28 -10 c-21 -8 -26 -15 -23 -34 7 -38 35 -78 67 -97 37 -21 41 -13
37 69 -3 54 -5 59 -25 57 -13 -2 -23 2 -23 7 0 6 14 10 30 10 34 0 32 8 31
-202 0 -50 4 -88 9 -88 6 0 10 60 10 145 l0 145 62 0 c67 0 72 14 5 16 -23 1
-48 2 -54 3 -8 1 -13 16 -13 41 0 22 -4 40 -10 40 -5 0 -9 -3 -9 -7 1 -5 1
-24 0 -43 -1 -34 -2 -35 -41 -35 -22 -1 -40 3 -40 7 0 4 10 7 23 6 43 -2 47 2
47 37 0 38 -4 40 -35 23z"/>
<path d="M504 835 c-4 -8 -4 -25 0 -38 5 -20 10 -22 50 -19 51 4 52 16 3 50
-39 26 -46 27 -53 7z"/>
<path d="M310 741 c0 -6 -6 -11 -12 -11 -7 0 -28 -13 -45 -28 -30 -24 -40 -49
-102 -255 -50 -165 -66 -230 -57 -233 23 -9 161 1 162 11 0 13 15 125 19 145
1 8 6 40 9 71 4 31 9 67 11 79 2 12 7 43 10 69 10 91 17 136 21 143 2 4 0 9
-6 13 -5 3 -10 1 -10 -4z"/>
<path d="M646 703 c2 -26 7 -59 9 -73 2 -14 7 -47 10 -75 3 -27 8 -61 11 -75
2 -14 6 -47 9 -75 3 -27 8 -68 11 -90 9 -53 12 -77 13 -92 1 -15 171 -19 171
-5 0 4 -23 82 -50 173 -28 90 -52 171 -54 179 -23 96 -32 112 -81 146 -56 38
-55 38 -49 -13z"/>
<path d="M506 732 c-5 -9 -5 -125 0 -134 2 -3 18 1 35 9 36 18 69 67 69 104 0
23 -3 25 -50 26 -27 1 -51 -1 -54 -5z"/>
<path d="M339 660 c0 -3 -2 -12 -4 -20 -9 -44 -15 -80 -20 -125 -3 -27 -8 -57
-10 -65 -3 -8 -7 -35 -10 -60 -3 -25 -8 -56 -10 -70 -5 -32 -15 -101 -20 -140
l-4 -30 100 0 99 0 1 28 c1 34 1 248 0 328 l-1 60 -39 17 c-22 10 -49 32 -60
50 -11 18 -21 30 -22 27z"/>
<path d="M601 630 c-12 -17 -38 -38 -59 -48 l-37 -17 0 -205 0 -205 99 -3 98
-3 -7 58 c-4 31 -8 65 -10 74 -2 10 -6 39 -10 66 -4 26 -8 59 -11 72 -2 13 -6
45 -10 70 -3 25 -8 57 -10 71 -2 14 -7 41 -10 60 -3 19 -7 36 -8 37 -1 2 -12
-11 -25 -27z"/>
</g>
</svg>
